<svg xmlns="http://www.w3.org/2000/svg" viewBox="0 0 24 24" fill="none" stroke="currentColor" stroke-width="2" stroke-linecap="round" stroke-linejoin="round">
  <path d="M2 22s2.5-10 10-10c.5 0 1 0 1.5.1"></path>
  <path d="M5 10.5c1 1 2 2 3.5 2 1.5 0 2.5-1 2.5-2.5 0-1.5-1-2.5-2.5-2.5-1.5 0-2.5 1-2.5 2.5 0 .5 0 1 .5 1.5"></path>
  <path d="M12 12.5c1 1 2 2 3.5 2 1.5 0 2.5-1 2.5-2.5 0-1.5-1-2.5-2.5-2.5-1.5 0-2.5 1-2.5 2.5 0 .5 0 1 .5 1.5"></path>
  <path d="M19 17.5c1 1 2 2 3.5 2 1.5 0 2.5-1 2.5-2.5 0-1.5-1-2.5-2.5-2.5-1.5 0-2.5 1-2.5 2.5 0 .5 0 1 .5 1.5"></path>
</svg> 